<?xml version="1.0" encoding="UTF-8" standalone="no"?>
<svg width="26px" height="26px" viewBox="0 0 26 26" version="1.1" xmlns="http://www.w3.org/2000/svg" xmlns:xlink="http://www.w3.org/1999/xlink">
    <!-- Generator: Sketch 3.8.3 (29802) - http://www.bohemiancoding.com/sketch -->
    <title>Shape</title>
    <desc>Created with Sketch.</desc>
    <defs></defs>
    <g id="Symbols" stroke="none" stroke-width="1" fill="none" fill-rule="evenodd">
        <g id="Sidebar" transform="translate(-33.000000, -59.000000)" fill="#797979">
            <path d="M45.9950003,59 C38.8406295,59 33.0109797,64.8290232 33.0000135,71.9940469 C32.9950003,75.5311272 34.3902186,78.9604252 36.8287956,81.402762 C39.1451775,83.7222771 42.2223026,85 45.4940001,85 C45.6685199,85 45.8442929,84.9965535 46.021006,84.9890338 C53.2931855,84.6910655 58.9899872,78.9832976 58.9899872,71.9949869 C58.9899872,64.8293365 53.1606507,59 45.9950003,59 L45.9950003,59 Z M45.969308,83.7370032 C45.810141,83.7435829 45.6512872,83.7467162 45.4936868,83.7467162 C42.9031491,83.7467162 40.448906,82.8531248 38.4790571,81.2128895 C38.4796838,81.2003567 38.482817,81.1884505 38.482817,81.1756043 C38.482817,77.882601 40.4135007,75.0802584 43.3048266,74.1268227 C44.0323578,74.4993613 44.8535721,74.7139862 45.7258576,74.7139862 C46.5978299,74.7139862 47.4193574,74.4993613 48.147202,74.1268227 C51.1071451,75.0990576 53.1615907,77.9468318 53.1766301,81.1398858 C51.1980082,82.668892 48.7077332,83.624521 45.969308,83.7370032 L45.969308,83.7370032 Z M45.7258576,73.4607023 C43.4755865,73.4607023 41.6451654,71.6302813 41.6451654,69.3800101 C41.6451654,67.129739 43.4755865,65.2993179 45.7258576,65.2993179 C47.9761288,65.2993179 49.8065498,67.1300523 49.8065498,69.3800101 C49.8065498,71.6299679 47.9761288,73.4607023 45.7258576,73.4607023 L45.7258576,73.4607023 Z M54.3575368,80.1006001 C53.9843715,77.1014919 52.0778135,74.4890217 49.372287,73.2623702 C50.4084394,72.2888819 51.0598337,70.910583 51.0598337,69.3800101 C51.0598337,66.4388663 48.6670015,64.0460341 45.7258576,64.0460341 C42.7847138,64.0460341 40.3918816,66.4388663 40.3918816,69.3800101 C40.3918816,70.911523 41.0442158,72.2901352 42.0813082,73.2639368 C39.452232,74.4708491 37.6522031,77.032248 37.299717,80.0764744 C35.3530539,77.9054735 34.2492241,74.9950351 34.2539239,71.9956135 C34.2636369,65.5208358 39.5308756,60.2529705 45.995627,60.2529705 C52.4694647,60.2532838 57.7367033,65.5205225 57.7367033,71.9949869 C57.7367033,75.1363428 56.4564739,77.9910101 54.3575368,80.1006001 L54.3575368,80.1006001 Z" id="Shape"></path>
        </g>
    </g>
</svg>
