<?xml version="1.0" encoding="UTF-8" standalone="no"?>
<svg width="22px" height="22px" viewBox="0 0 22 22" version="1.1" xmlns="http://www.w3.org/2000/svg" xmlns:xlink="http://www.w3.org/1999/xlink">
    <!-- Generator: sketchtool 39.1 (31720) - http://www.bohemiancoding.com/sketch -->
    <title>5D6879E3-C2B6-4970-8B72-EAA0B2EFE0E4</title>
    <desc>Created with sketchtool.</desc>
    <defs></defs>
    <g id="Main" stroke="none" stroke-width="1" fill="none" fill-rule="evenodd">
        <g id="Main_Acc_hover" transform="translate(-782.000000, -595.000000)" fill="#FFFFFF">
            <g id="ПЕРВЫЙ-ЭКРАН" transform="translate(320.000000, 90.000000)">
                <g id="Узнать-больше" transform="translate(0.000000, 455.000000)">
                    <path d="M473,50 C466.9346,50 462,54.9346 462,61 C462,67.0657667 466.9346,72 473,72 C479.065767,72 484,67.0657667 484,61 C484,54.9346 479.065767,50 473,50 L473,50 Z M473,70.5333333 C467.7431,70.5333333 463.466667,66.2565333 463.466667,61 C463.466667,55.7431 467.7431,51.4666667 473,51.4666667 C478.256533,51.4666667 482.533333,55.7431 482.533333,61 C482.533333,66.2565333 478.256533,70.5333333 473,70.5333333 L473,70.5333333 Z M472.266667,66.8666667 L473.733333,66.8666667 L473.733333,65.4 L472.266667,65.4 L472.266667,66.8666667 L472.266667,66.8666667 Z M473,55.1333333 C471.339367,55.1333333 469.5625,56.2465333 469.336267,58.7336333 L470.797067,58.866 C470.992867,56.7092667 472.6667,56.6 473,56.6 C473.5159,56.6 475.2,56.7353 475.2,58.4791667 C475.2,59.3991333 474.708667,59.8464667 473.908233,60.4995 C473.176733,61.0957 472.266667,61.8378333 472.266667,63.2 L472.266667,63.9333333 L473.733333,63.9333333 L473.733333,63.2 C473.733333,62.5656667 474.131533,62.2096333 474.8348,61.6358 C475.651,60.9706667 476.666667,60.1423667 476.666667,58.4791667 C476.666667,56.4779 475.192667,55.1333333 473,55.1333333 L473,55.1333333 Z" id="Shape"></path>
                </g>
            </g>
        </g>
    </g>
</svg>