<?xml version="1.0" encoding="UTF-8"?>
<!DOCTYPE svg PUBLIC "-//W3C//DTD SVG 1.1//EN" "http://www.w3.org/Graphics/SVG/1.1/DTD/svg11.dtd">
<!-- Creator: CorelDRAW X8 -->
<svg xmlns="http://www.w3.org/2000/svg" xml:space="preserve" width="17.058mm" height="7.0139mm" version="1.1" style="shape-rendering:geometricPrecision; text-rendering:geometricPrecision; image-rendering:optimizeQuality; fill-rule:evenodd; clip-rule:evenodd"
viewBox="0 0 2498 1027"
 xmlns:xlink="http://www.w3.org/1999/xlink">
 <defs>
  <style type="text/css">
   <![CDATA[
    .fil0 {fill:#5B5B5B;fill-rule:nonzero}
   ]]>
  </style>
 </defs>
 <g id="Слой_x0020_1">
  <metadata id="CorelCorpID_0Corel-Layer"/>
  <path class="fil0" d="M498 0l1502 0c137,0 262,56 352,146 90,90 146,215 146,352l0 31c0,137 -56,262 -146,352 -90,90 -215,146 -352,146l-1502 0c-137,0 -262,-56 -352,-146 -90,-90 -146,-215 -146,-352l0 -31c0,-137 56,-262 146,-352 90,-90 215,-146 352,-146zm1502 88l-1502 0c-113,0 -215,46 -290,120 -74,75 -120,177 -120,290l0 31c0,113 46,216 120,290 75,74 177,120 290,120l1502 0c113,0 216,-46 290,-120 74,-74 120,-177 120,-290l0 -31c0,-113 -46,-215 -120,-290 -74,-74 -177,-120 -290,-120z"/>
  <path class="fil0" d="M539 170c95,0 181,39 243,101 62,62 100,148 100,243 0,94 -38,180 -100,242 -62,62 -148,101 -243,101 -95,0 -180,-39 -242,-101 -63,-62 -101,-148 -101,-242 0,-95 38,-181 101,-243l0 0c62,-62 148,-101 242,-101zm181 163c-46,-46 -110,-75 -181,-75 -70,0 -134,29 -180,75l0 0c-47,46 -75,110 -75,181 0,70 28,134 75,180l0 0c46,46 110,75 180,75 71,0 135,-29 181,-75l0 0c46,-46 75,-110 75,-180 0,-71 -29,-135 -75,-181l0 0z"/>
  <path class="fil0" d="M1512 510c0,-30 5,-55 14,-75 6,-15 15,-29 27,-40 11,-12 24,-21 38,-27 18,-8 39,-11 63,-11 43,0 77,13 103,40 26,26 39,64 39,111 0,48 -13,85 -39,111 -25,27 -60,40 -102,40 -44,0 -79,-13 -104,-40 -26,-26 -39,-63 -39,-109zm61 -2c0,33 8,58 23,75 15,17 35,26 58,26 24,0 43,-9 58,-26 16,-17 23,-42 23,-76 0,-34 -7,-59 -22,-75 -15,-17 -34,-25 -59,-25 -24,0 -44,9 -58,25 -15,17 -23,42 -23,76zm270 146l0 -292 59 0 0 129 119 -129 79 0 -110 114 116 178 -76 0 -81 -137 -47 49 0 88 -59 0z"/>
 </g>
</svg>
