<?xml version="1.0" encoding="UTF-8"?>
<!DOCTYPE svg PUBLIC "-//W3C//DTD SVG 1.1//EN" "http://www.w3.org/Graphics/SVG/1.1/DTD/svg11.dtd">
<!-- Creator: CorelDRAW X8 -->
<svg xmlns="http://www.w3.org/2000/svg" xml:space="preserve" width="14.6044mm" height="11.716mm" version="1.1" style="shape-rendering:geometricPrecision; text-rendering:geometricPrecision; image-rendering:optimizeQuality; fill-rule:evenodd; clip-rule:evenodd"
viewBox="0 0 1786 1433"
 xmlns:xlink="http://www.w3.org/1999/xlink">
 <defs>
  <style type="text/css">
   <![CDATA[
    .str0 {stroke:#5B5B5B;stroke-width:9.32024}
    .fil0 {fill:#5B5B5B;fill-rule:nonzero}
   ]]>
  </style>
 </defs>
 <g id="Слой_x0020_1">
  <metadata id="CorelCorpID_0Corel-Layer"/>
  <path class="fil0" d="M161 200c0,-17 14,-31 31,-31 17,0 30,14 30,31 1,165 0,266 -2,339 -2,75 -6,123 -13,181 -10,80 -37,126 -66,175 -31,52 -65,109 -78,221 -10,93 19,151 69,186 53,37 132,52 215,57 274,17 585,14 881,10l156 -1c152,-2 265,-56 316,-113 14,-16 22,-31 25,-44 1,-10 -1,-19 -7,-26 -17,-19 -59,-31 -133,-27 -8,0 -16,1 -22,1 -149,0 -370,-77 -555,-192 -188,-117 -341,-274 -350,-434 0,-6 0,-11 0,-15l0 -318c0,-17 13,-31 30,-31 17,0 31,14 31,31l0 318 0 12c7,137 148,278 321,385 176,109 384,182 523,182 7,0 14,0 19,0 95,-5 154,15 183,48 18,22 25,48 20,76 -5,25 -18,50 -39,74 -60,68 -191,132 -362,134l-155 1c-298,4 -611,7 -886,-10 -92,-5 -182,-23 -246,-68 -68,-48 -108,-124 -94,-243 14,-125 51,-187 85,-245 26,-44 50,-84 58,-152 7,-57 11,-103 13,-175 2,-73 3,-173 2,-337z"/>
  <path class="fil0" d="M293 745c8,-16 26,-22 41,-14 15,7 21,26 14,41 -15,29 -21,61 -18,92 2,24 9,46 22,66 13,20 31,37 55,49 32,16 74,24 127,19 17,-2 32,11 33,27 2,17 -11,32 -28,33 -65,6 -117,-4 -159,-24 -34,-18 -61,-42 -79,-71 -18,-28 -29,-60 -32,-93 -4,-43 5,-87 24,-125z"/>
  <path class="fil0" d="M1213 424l41 -5c1,10 5,18 10,24 6,5 13,8 21,8 9,0 16,-3 22,-10 6,-7 9,-16 9,-27 0,-10 -3,-19 -9,-25 -5,-6 -12,-10 -21,-10 -5,0 -11,2 -19,4l5 -35c11,1 20,-2 26,-7 6,-5 9,-12 9,-21 0,-8 -2,-14 -7,-18 -4,-5 -10,-7 -17,-7 -8,0 -14,3 -19,8 -5,5 -8,12 -9,22l-39 -7c3,-13 7,-24 12,-32 6,-8 13,-14 23,-19 10,-5 21,-7 33,-7 21,0 37,7 50,20 10,11 15,23 15,37 0,19 -10,35 -31,47 12,2 22,8 30,18 8,9 11,21 11,34 0,19 -7,36 -21,50 -14,13 -32,20 -53,20 -20,0 -36,-6 -49,-17 -13,-12 -21,-27 -23,-45zm182 -163l81 0c19,0 33,2 42,5 13,3 24,10 34,20 9,10 16,22 21,36 5,14 7,31 7,52 0,18 -2,34 -7,47 -5,16 -13,29 -23,39 -8,7 -19,13 -32,17 -10,4 -23,5 -39,5l-84 0 0 -221zm45 38l0 146 33 0c12,0 21,-1 27,-2 7,-2 13,-5 18,-9 5,-5 8,-12 11,-22 3,-10 5,-23 5,-40 0,-17 -2,-30 -5,-39 -3,-10 -7,-17 -12,-22 -6,-5 -12,-8 -21,-10 -6,-2 -18,-2 -36,-2l-20 0z"/>
  <path class="fil0 str0" d="M1023 367c0,-10 9,-18 19,-18 10,0 18,9 18,19 -1,92 30,166 86,217 37,35 85,61 142,77 -3,-14 -4,-35 -2,-54 19,47 105,85 154,94 -47,15 -116,11 -188,-13 -51,-18 -95,-43 -131,-77 -63,-59 -99,-141 -98,-245z"/>
  <path class="fil0 str0" d="M1754 372c0,10 -9,18 -19,17 -10,-1 -18,-10 -17,-20 7,-92 -19,-167 -71,-223 -35,-37 -81,-66 -136,-85 1,14 1,35 -3,54 -15,-49 -98,-93 -147,-105 48,-12 117,-4 187,26 50,21 92,49 126,85 58,63 89,148 80,251z"/>
 </g>
</svg>
