<?xml version="1.0" encoding="UTF-8"?>
<!DOCTYPE svg PUBLIC "-//W3C//DTD SVG 1.1//EN" "http://www.w3.org/Graphics/SVG/1.1/DTD/svg11.dtd">
<!-- Creator: CorelDRAW X8 -->
<svg xmlns="http://www.w3.org/2000/svg" xml:space="preserve" width="16.4425mm" height="7.6855mm" version="1.1" style="shape-rendering:geometricPrecision; text-rendering:geometricPrecision; image-rendering:optimizeQuality; fill-rule:evenodd; clip-rule:evenodd"
viewBox="0 0 2273 1062"
 xmlns:xlink="http://www.w3.org/1999/xlink">
 <defs>
  <style type="text/css">
   <![CDATA[
    .fil0 {fill:#5B5B5B;fill-rule:nonzero}
   ]]>
  </style>
 </defs>
 <g id="Слой_x0020_1">
  <metadata id="CorelCorpID_0Corel-Layer"/>
  <path class="fil0" d="M159 848l2035 0c35,0 57,14 67,36 6,13 7,28 4,44 -2,13 -8,28 -16,41 -28,47 -86,93 -149,93l-1941 0c-30,0 -53,-12 -69,-31 -16,-20 -24,-47 -24,-76 0,-29 8,-56 24,-76 16,-19 39,-31 69,-31zm2035 55l-2035 0c-12,0 -20,4 -26,11 -8,10 -11,24 -11,41 0,17 3,32 11,41 6,7 14,11 26,11l1941 0c42,0 82,-33 101,-66 5,-8 9,-16 10,-23 1,-5 1,-9 0,-11 -1,-2 -6,-4 -17,-4z"/>
  <path class="fil0" d="M123 898l-12 -15 -15 -20c-29,-39 -55,-94 -72,-157 -16,-55 -25,-118 -24,-180 2,-81 17,-167 39,-242 23,-80 54,-148 87,-184 71,-79 110,-89 143,-60 17,16 25,41 34,71 13,43 31,102 84,134 113,67 217,-28 314,-117 53,-48 104,-95 158,-120 83,-38 233,61 409,176 46,31 94,63 148,96 164,102 340,186 426,228 23,11 40,19 47,23 27,14 62,27 99,42 152,60 335,132 272,315l-65 -22c41,-121 -108,-180 -232,-229 -39,-15 -75,-29 -105,-45 -11,-5 -26,-13 -45,-22 -89,-42 -268,-128 -433,-231 -49,-30 -101,-64 -150,-97 -158,-104 -293,-193 -342,-171 -44,20 -92,64 -140,108 -116,106 -239,218 -396,125 -77,-45 -99,-119 -115,-173 -7,-20 -12,-37 -15,-40 -1,-1 -9,15 -45,55 -26,28 -52,87 -72,157 -20,70 -34,150 -36,225 -1,55 7,110 21,160 15,54 38,101 62,134l14 19 10 13 -53 44z"/>
  <path class="fil0" d="M759 154l0 183c0,39 -16,74 -41,100l0 0c-26,26 -61,41 -100,41l-235 0c-38,0 -74,-15 -99,-41l-1 0c-25,-26 -41,-61 -41,-100l0 -199 69 0 0 199c0,20 8,38 21,51l0 0c13,13 31,21 51,21l235 0c20,0 38,-8 51,-21l0 0c13,-13 21,-31 21,-51l0 -183 69 0z"/>
  <path class="fil0" d="M613 870c-13,13 -35,13 -48,-1 -14,-14 -13,-35 0,-49l491 -478c14,-13 36,-13 49,1 13,13 13,35 -1,48l-491 479z"/>
  <path class="fil0" d="M804 870c-14,13 -36,13 -49,-1 -13,-14 -13,-35 1,-49l416 -405c13,-14 35,-13 48,0 14,14 13,36 0,49l-416 406z"/>
  <path class="fil0" d="M994 870c-14,13 -36,13 -49,-1 -13,-14 -13,-35 1,-49l343 -335c14,-13 36,-13 49,1 13,13 13,35 -1,49l-343 335z"/>
  <path class="fil0" d="M1208 278c-13,13 -35,13 -48,-1 -14,-14 -13,-36 0,-49l81 -78c13,-13 35,-13 48,1 14,13 13,35 0,48l-81 79z"/>
  <path class="fil0" d="M1353 364c-13,13 -35,13 -48,-1 -14,-14 -13,-35 0,-49l80 -78c14,-13 36,-13 49,1 13,13 13,35 -1,49l-80 78z"/>
  <path class="fil0" d="M1513 459c-13,13 -35,13 -48,-1 -14,-13 -13,-35 0,-48l80 -79c14,-13 36,-13 49,1 13,14 13,36 -1,49l-80 78z"/>
  <path class="fil0" d="M771 99l747 484c68,43 122,54 167,43 45,-11 84,-44 120,-88l53 44c-45,54 -95,96 -157,111 -63,15 -135,3 -220,-52l-747 -484 37 -58z"/>
 </g>
</svg>
